<svg width="86" height="86" viewBox="0 0 86 86" fill="none" xmlns="http://www.w3.org/2000/svg">
<path d="M38.9688 61.8125L36.2812 81.9688H4.03125L5.56312 65.911C5.88059 62.5843 7.4262 59.4953 9.89832 57.2468C12.3704 54.9983 15.5917 53.7516 18.9334 53.75H24.0934C24.9541 53.7503 25.8022 53.5442 26.5667 53.1491C27.3313 52.754 27.99 52.1813 28.4875 51.4791L28.9712 50.7803L34.9375 59.125L36.2678 57.7544L38.9688 61.8125Z" fill="#0AA8B0" fill-opacity="0.2"/>
<path d="M21.5 76.5938C23.7264 76.5938 25.5312 74.7889 25.5312 72.5625C25.5312 70.3361 23.7264 68.5312 21.5 68.5312C19.2736 68.5312 17.4688 70.3361 17.4688 72.5625C17.4688 74.7889 19.2736 76.5938 21.5 76.5938Z" fill="#F1F2F2"/>
<path d="M80.4396 65.9136C80.1226 62.5854 78.5763 59.4948 76.1027 57.2456C73.6291 54.9963 70.4059 53.75 67.0625 53.75H61.9092C61.049 53.75 60.2012 53.5435 59.4373 53.1479C58.6734 52.7523 58.0156 52.179 57.5192 51.4764L57.0274 50.7817L51.0625 59.125L49.7376 57.7517L47.0312 61.8125L49.7188 81.9688H81.9688L80.4396 65.9136Z" fill="#0AA8B0" fill-opacity="0.2"/>
<path d="M65.8438 61.92V53.75H63.1562V61.92C60.9194 62.2429 58.8737 63.3603 57.3932 65.0678C55.9126 66.7753 55.0964 68.9588 55.0938 71.2188V77.9375H60.4688V75.25H57.7812V71.2188C57.7813 69.4368 58.4891 67.7279 59.7491 66.4679C61.0091 65.2079 62.7181 64.5 64.5 64.5C66.2819 64.5 67.9909 65.2079 69.2509 66.4679C70.5109 67.7279 71.2187 69.4368 71.2188 71.2188V75.25H68.5312V77.9375H73.9062V71.2188C73.9036 68.9588 73.0874 66.7753 71.6068 65.0678C70.1263 63.3603 68.0806 62.2429 65.8438 61.92V61.92Z" fill="#939598"/>
<path d="M22.8438 67.3783V53.75H20.1563V67.3783C18.8896 67.7054 17.7856 68.4832 17.0514 69.5659C16.3171 70.6487 16.003 71.9621 16.1679 73.2599C16.3327 74.5577 16.9652 75.7509 17.9468 76.6157C18.9284 77.4805 20.1918 77.9576 21.5 77.9576C22.8083 77.9576 24.0716 77.4805 25.0532 76.6157C26.0348 75.7509 26.6673 74.5577 26.8322 73.2599C26.997 71.9621 26.6829 70.6487 25.9486 69.5659C25.2144 68.4832 24.1105 67.7054 22.8438 67.3783V67.3783ZM21.5 75.25C20.9685 75.25 20.4489 75.0924 20.0069 74.7971C19.565 74.5018 19.2205 74.082 19.0171 73.591C18.8137 73.0999 18.7605 72.5595 18.8642 72.0382C18.9678 71.5169 19.2238 71.038 19.5997 70.6621C19.9755 70.2863 20.4544 70.0303 20.9757 69.9266C21.497 69.8229 22.0374 69.8762 22.5285 70.0796C23.0196 70.283 23.4393 70.6274 23.7346 71.0694C24.0299 71.5114 24.1875 72.031 24.1875 72.5625C24.1875 73.2753 23.9044 73.9588 23.4004 74.4629C22.8964 74.9669 22.2128 75.25 21.5 75.25V75.25Z" fill="#939598"/>
<path d="M43.0054 50.7722L43 50.7668L42.9946 50.7722H43.0054Z" fill="#FF0000"/>
<path d="M61.3288 29.5625H59.125V32.1291C59.1219 33.9719 58.8475 35.8043 58.3107 37.5672V37.625H60.8907C61.5256 37.6226 62.1392 37.3962 62.6235 36.9856C63.1078 36.5751 63.4316 36.0068 63.5379 35.3809L63.9814 32.6934C64.0458 32.3082 64.0255 31.9135 63.9219 31.5369C63.8182 31.1603 63.6337 30.8108 63.3812 30.5128C63.1287 30.2147 62.8143 29.9753 62.4598 29.8112C62.1054 29.6471 61.7194 29.5622 61.3288 29.5625Z" fill="#FF9478"/>
<path d="M26.875 29.5625H24.6713C24.2811 29.563 23.8957 29.6485 23.5419 29.8129C23.1881 29.9774 22.8744 30.2169 22.6225 30.5148C22.3706 30.8128 22.1866 31.162 22.0832 31.5382C21.9799 31.9144 21.9597 32.3086 22.0241 32.6934L22.4675 35.3809C22.5739 36.0068 22.8977 36.5751 23.382 36.9856C23.8662 37.3962 24.4799 37.6226 25.1147 37.625H27.6947V37.5672C27.1561 35.8045 26.8799 33.9722 26.875 32.1291V29.5625Z" fill="#FF9478"/>
<path d="M42.9261 50.8072C42.3758 50.801 41.8297 50.7104 41.3069 50.5384L39.7347 50.0144C37.0659 49.1253 34.6317 47.6464 32.6128 45.6875H32.5994L28.9713 50.8206L34.9375 59.1653L43 50.8126C42.9718 50.8126 42.9489 50.8072 42.9261 50.8072Z" fill="#0AA8B0" fill-opacity="0.8"/>
<path d="M57.0274 50.8206L53.4006 45.6875H53.3818C51.363 47.6464 48.9287 49.1253 46.2599 50.0144L44.6877 50.5384C44.1671 50.7097 43.6233 50.8003 43.0752 50.8072C43.0524 50.8072 43.0296 50.8072 43.0067 50.8072L51.0692 59.1599L57.0341 50.8166L57.0274 50.8206Z" fill="#0AA8B0" fill-opacity="0.75"/>
<path d="M16.125 4.03125V14.7812C16.125 17.6323 17.2576 20.3666 19.2736 22.3826C21.2896 24.3987 24.0239 25.5312 26.875 25.5312H43V4.03125H16.125Z" fill="#112340"/>
<path d="M59.125 4.03125H43V25.5312H59.125C60.5505 25.5312 61.9177 24.965 62.9257 23.9569C63.9337 22.9489 64.5 21.5818 64.5 20.1562V9.40625C64.5 7.98071 63.9337 6.61356 62.9257 5.60555C61.9177 4.59754 60.5505 4.03125 59.125 4.03125Z" fill="#112340"/>
<path d="M26.875 25.5312V32.1291C26.8752 36.0767 28.1172 39.9242 30.4251 43.1268C32.733 46.3295 35.9899 48.7249 39.7347 49.9741L41.3069 50.4981C41.8514 50.6778 42.4213 50.7686 42.9946 50.7669V25.5312H26.875Z" fill="#FFBCAB"/>
<path d="M43 25.5312V50.7669C43.5734 50.7686 44.1433 50.6778 44.6878 50.4981L46.2599 49.9741C50.0057 48.7259 53.2638 46.3308 55.5727 43.1281C57.8817 39.9253 59.1244 36.0773 59.125 32.1291V25.5312H43Z" fill="#FFC2B3"/>
<path d="M42.9946 50.7723L36.2625 57.7517L38.9688 61.8125H43V50.7723H42.9946Z" fill="#0AA8B0"/>
<path d="M49.7376 57.7517L43.0054 50.7723H43V61.8125H47.0313L49.7376 57.7517Z" fill="#0AA8B0" fill-opacity="0.93"/>
<path d="M38.9688 61.8125L36.2812 81.9688H43V61.8125H38.9688Z" fill="#0AA8B0" fill-opacity="0.8"/>
<path d="M47.0312 61.8125H43V81.9688H49.7188L47.0312 61.8125Z" fill="#0AA8B0" fill-opacity="0.8"/>
</svg>
